<?xml version="1.0" encoding="iso-8859-1"?>
<!-- Generator: Adobe Illustrator 16.0.0, SVG Export Plug-In . SVG Version: 6.00 Build 0)  -->
<!DOCTYPE svg PUBLIC "-//W3C//DTD SVG 1.1//EN" "http://www.w3.org/Graphics/SVG/1.1/DTD/svg11.dtd">
<svg version="1.1" id="Page_26" xmlns="http://www.w3.org/2000/svg" xmlns:xlink="http://www.w3.org/1999/xlink" x="0px" y="0px"
	 width="907.09px" height="359.171px" viewBox="0 0 907.09 359.171" style="enable-background:new 0 0 907.09 359.171;"
	 xml:space="preserve">
<path style="fill:#8C6F4B;" d="M14.16,355.104c0,0.668,0.16,1.159,0.551,1.436c0.383,0.301,0.848,0.453,1.352,0.453v2.295
	l-16.051,0.024v-2.319c0.504,0,0.957-0.128,1.352-0.423c0.367-0.307,0.563-0.798,0.563-1.466l-0.023-47.635
	c0-0.699-0.184-1.19-0.59-1.484c-0.355-0.271-0.82-0.436-1.313-0.436v-2.289l16.063-0.012v2.288c-0.527,0-0.996,0.142-1.363,0.424
	c-0.379,0.318-0.539,0.81-0.539,1.484v17.97l34.113-0.018v-17.952c0-0.688-0.184-1.166-0.566-1.484
	c-0.379-0.282-0.82-0.424-1.336-0.424v-2.301h16.051v2.301c-0.516,0-0.973,0.142-1.34,0.424c-0.406,0.3-0.59,0.797-0.59,1.484
	l0.027,47.646c0,0.681,0.195,1.153,0.563,1.448c0.367,0.288,0.836,0.453,1.34,0.453v2.295H46.383v-2.295
	c0.504,0,0.945-0.152,1.348-0.453c0.371-0.295,0.566-0.768,0.566-1.448l-0.023-19.222H14.16V355.104z"/>
<path style="fill:#8C6F4B;" d="M112.605,302.463c4.652-0.037,9.07,0.589,13.203,1.779c4.098,1.178,7.684,2.944,10.75,5.337
	c3.066,2.394,5.461,5.387,7.27,8.958c1.781,3.645,2.656,7.865,2.656,12.712c0,4.822-0.871,9.031-2.656,12.651
	c-1.762,3.619-4.203,6.607-7.258,8.976c-3.055,2.38-6.664,4.104-10.762,5.172c-4.121,1.08-8.516,1.607-13.172,1.607
	c-4.719,0-9.098-0.527-13.195-1.589c-4.125-1.074-7.719-2.773-10.773-5.16c-3.07-2.374-5.469-5.361-7.266-8.969
	c-1.805-3.633-2.664-7.836-2.664-12.676c0-4.841,0.859-9.068,2.664-12.682c1.797-3.614,4.184-6.596,7.254-8.977
	c3.066-2.38,6.637-4.172,10.758-5.35C103.52,303.052,107.918,302.463,112.605,302.463 M112.605,311.874
	c-2.734,0-5.375,0.454-7.961,1.35c-2.578,0.878-4.91,2.159-6.945,3.816c-2.051,1.669-3.688,3.688-4.91,6.05
	c-1.238,2.393-1.828,5.092-1.828,8.172c0,3.043,0.59,5.767,1.828,8.123c1.223,2.393,2.859,4.417,4.957,6.074
	c1.988,1.656,4.32,2.907,6.898,3.797c2.625,0.902,5.238,1.344,7.992,1.344c2.668,0,5.355-0.441,7.969-1.344
	c2.566-0.89,4.887-2.159,6.922-3.81c2.051-1.675,3.633-3.669,4.883-6.062c1.242-2.368,1.867-5.08,1.867-8.136
	c0-3.067-0.625-5.767-1.867-8.159c-1.25-2.381-2.859-4.418-4.902-6.057c-2.055-1.65-4.348-2.932-6.949-3.834
	C117.98,312.328,115.305,311.874,112.605,311.874"/>
<path style="fill:#8C6F4B;" d="M175.418,356.943c0.43,0,0.859-0.141,1.289-0.43c0.406-0.307,0.625-0.785,0.625-1.472v-42.389
	h-16.547c-0.703,0-1.344,0.153-1.949,0.491c-0.582,0.337-0.879,0.901-0.879,1.662h-2.305v-14.651h2.305
	c0,1.19,0.297,1.994,0.879,2.405c0.605,0.43,1.246,0.656,1.949,0.656l45.297-0.03c0.699,0,1.352-0.196,1.93-0.626
	c0.598-0.424,0.918-1.245,0.918-2.43h2.281v14.651h-2.281c0-0.785-0.293-1.325-0.918-1.638c-0.578-0.375-1.23-0.547-1.902-0.547
	h-16.543v42.444c0,1.27,0.762,1.901,2.281,1.901v2.307H175.43L175.418,356.943z"/>
<path style="fill:#8C6F4B;" d="M274.871,315.003c0-1.583-1.273-2.423-3.914-2.423l-31.066,0.012v12.749h19.594
	c1.461,0,2.504-0.104,3.211-0.325c0.641-0.196,1.012-0.761,1.012-1.718H266v13.534h-2.551c0.258-0.963-0.113-1.527-1.02-1.742
	c-0.945-0.221-2.246-0.295-3.965-0.295h-18.574v15.008h32.613c1.008,0,1.852-0.258,2.539-0.7c0.664-0.46,1.02-1.104,1.02-1.864
	h2.293v13.362h-2.258c0-0.725-0.391-1.153-1.043-1.252c-0.699-0.073-1.543-0.142-2.551-0.142l-46.75,0.043v-2.307
	c0.418,0,0.832-0.141,1.25-0.453c0.418-0.283,0.652-0.786,0.652-1.467v-47.652c0-0.65-0.234-1.136-0.664-1.436
	c-0.453-0.295-0.848-0.467-1.238-0.467l-0.023-2.288h45.227c2.621,0,3.914-0.779,3.914-2.301h2.309l0.023,14.123H274.871z"/>
<path style="fill:#8C6F4B;" d="M314.25,303.174v2.283c-1.953,0-2.898,0.638-2.898,1.901v42.444h34.395
	c1.023-0.025,1.867-0.252,2.539-0.743c0.684-0.436,1.043-1.122,1.043-1.957h2.266l0.02,13.375h-2.285
	c0-0.687-0.328-1.067-1.016-1.153c-0.699-0.074-1.543-0.11-2.566-0.11h-49.953v-2.295c2.211,0,3.34-0.626,3.34-1.89l-0.016-47.671
	c0-1.264-1.113-1.901-3.336-1.901v-2.283H314.25z"/>
<path style="fill:#8C6F4B;" d="M449.566,359.558c-3.129,0-5.875-0.246-8.195-0.7c-2.344-0.472-4.379-1.129-6.125-1.963
	c-1.758-0.877-3.25-1.804-4.465-2.871s-2.367-2.147-3.398-3.239c-2.023,1.681-3.914,3.104-5.633,4.258
	c-1.766,1.153-3.547,2.098-5.387,2.798c-1.816,0.724-3.766,1.178-5.828,1.41c-2.098,0.215-4.508,0.332-7.203,0.332
	c-3.063,0-6.184-0.332-9.375-1.031c-3.164-0.687-6.086-1.828-8.648-3.423c-2.59-1.62-4.762-3.718-6.43-6.259
	c-1.719-2.546-2.578-5.595-2.578-9.153c0-2.81,0.441-5.276,1.363-7.338c0.883-2.086,2.07-3.901,3.594-5.411
	c1.527-1.553,3.375-2.785,5.484-3.841c2.125-0.994,4.453-1.884,6.883-2.54v-0.245c-2.625-0.871-4.918-2.381-6.832-4.516
	c-1.902-2.179-2.859-4.7-2.859-7.608c0-2.932,0.711-5.484,2.121-7.533c1.387-2.111,3.152-3.865,5.324-5.265
	c2.172-1.393,4.664-2.405,7.414-3.03c2.734-0.65,5.434-0.982,8.074-0.982c2.699,0,5.434,0.332,8.172,0.951
	c2.734,0.656,5.152,1.669,7.301,3.062c2.172,1.399,3.949,3.153,5.375,5.239c1.387,2.063,2.102,4.571,2.102,7.559
	c0,2.958-0.84,5.547-2.496,7.7c-1.656,2.172-3.445,3.602-5.41,4.271c1.117,0.785,2,1.688,2.664,2.742
	c0.672,1.056,1.301,2.135,1.801,3.203c0.5,1.055,0.945,2.061,1.387,3.043c0.43,0.994,0.934,1.767,1.559,2.368
	c1.254-2.308,2.738-4.418,4.441-6.375c1.676-1.957,3.398-3.681,5.082-5.185c1.73-1.453,3.262-2.656,4.664-3.533
	c1.383-0.896,2.426-1.448,3.102-1.607c0.418-0.147,0.785-0.356,1.168-0.577c0.316-0.221,0.5-0.503,0.5-0.834h1.277v19.645h-1.262
	c-0.199-0.54-0.457-1.116-0.859-1.791c-0.355-0.693-1.008-1.019-1.977-1.019c-1.02,0-1.965,0.417-2.906,1.276
	c-0.898,0.834-1.805,1.89-2.543,3.116c-0.758,1.221-1.473,2.491-2.035,3.742c-0.59,1.252-1.031,2.344-1.301,3.185
	c1.195,1.528,2.637,2.927,4.293,4.142c1.645,1.239,3.203,1.926,4.676,2c1.18,0,1.938-0.417,2.195-1.172
	c0.32-0.761,0.457-1.613,0.457-2.54h1.262L449.566,359.558z M390.32,337.912c0,2.123,0.473,3.945,1.391,5.484
	c0.969,1.521,2.184,2.762,3.695,3.676c1.531,0.951,3.227,1.625,5.066,2.043c1.793,0.43,3.621,0.645,5.398,0.645
	c1.707,0,3.328-0.276,4.91-0.841c1.531-0.546,2.969-1.252,4.27-2.093c1.301-0.853,2.32-1.791,3.105-2.865
	c0.809-1.067,1.313-2.172,1.473-3.251c-1.266-1.779-2.223-3.546-2.824-5.289c-0.59-1.742-1.262-3.337-2.023-4.712
	c-0.762-1.404-1.793-2.527-3.055-3.387c-1.289-0.81-3.242-1.251-5.879-1.251c-1.754,0-3.582,0.221-5.375,0.632
	c-1.84,0.423-3.535,1.092-5.066,2.03c-1.523,0.933-2.75,2.153-3.695,3.645C390.793,333.863,390.32,335.703,390.32,337.912
	 M406.867,300.824c-2.957,0-5.5,0.73-7.559,2.117c-2.086,1.41-3.141,3.595-3.141,6.576c0,2.958,1.055,5.13,3.141,6.541
	c2.059,1.41,4.602,2.11,7.559,2.11c2.992,0,5.496-0.7,7.57-2.11c2.109-1.411,3.129-3.583,3.129-6.541
	c0-3.006-1.02-5.189-3.129-6.576C412.363,301.53,409.859,300.824,406.867,300.824"/>
<path style="fill:#8C6F4B;" d="M499.734,354.932c0,0.699,0.191,1.165,0.609,1.473c0.359,0.307,0.809,0.46,1.313,0.46l0.012,2.307
	h-16.023v-2.307c0.477,0,0.906-0.142,1.285-0.46c0.383-0.283,0.602-0.773,0.602-1.473l-0.027-47.635c0-0.65-0.191-1.141-0.574-1.454
	c-0.379-0.294-0.809-0.436-1.336-0.436v-2.294l16.063-0.013v2.307c-0.527,0-0.953,0.142-1.313,0.436
	c-0.418,0.313-0.609,0.804-0.609,1.454v17.977l34.168-0.024v-17.952c0-0.65-0.207-1.153-0.602-1.454
	c-0.359-0.307-0.832-0.436-1.316-0.436v-2.307h16.035l0.02,2.271c-0.504,0-0.98,0.165-1.34,0.472
	c-0.379,0.301-0.563,0.767-0.563,1.454v47.622c0,0.712,0.184,1.178,0.563,1.485c0.359,0.307,0.836,0.436,1.34,0.436v2.288h-16.027
	l-0.027-2.288c0.496,0,0.957-0.129,1.359-0.436c0.352-0.308,0.559-0.773,0.559-1.473v-19.229l-34.168,0.013V354.932z"/>
<path style="fill:#8C6F4B;" d="M598.211,302.315c4.684,0,9.074,0.601,13.191,1.779c4.125,1.19,7.695,2.957,10.773,5.344
	c3.059,2.387,5.461,5.368,7.242,8.964c1.777,3.632,2.676,7.84,2.676,12.699c0,4.835-0.898,9.056-2.676,12.676
	c-1.781,3.62-4.184,6.602-7.242,8.97c-3.059,2.381-6.648,4.093-10.762,5.153c-4.098,1.08-8.5,1.607-13.176,1.607
	s-9.07-0.515-13.203-1.607c-4.125-1.061-7.707-2.761-10.773-5.129c-3.043-2.393-5.449-5.374-7.227-8.994
	c-1.793-3.583-2.727-7.816-2.727-12.676c0-4.81,0.934-9.043,2.711-12.663c1.758-3.607,4.199-6.589,7.23-8.97
	c3.078-2.393,6.66-4.184,10.773-5.35C589.133,302.916,593.539,302.315,598.211,302.315 M598.211,311.745
	c-2.711,0-5.387,0.436-7.961,1.337c-2.59,0.891-4.898,2.166-6.953,3.799c-2.031,1.656-3.688,3.681-4.887,6.073
	c-1.215,2.387-1.867,5.104-1.867,8.147c0.023,3.068,0.652,5.773,1.891,8.173c1.215,2.368,2.832,4.38,4.895,6.03
	c2.051,1.663,4.344,2.927,6.957,3.811c2.555,0.901,5.215,1.368,7.953,1.368c2.711,0,5.336-0.467,7.926-1.368
	c2.637-0.908,4.934-2.147,6.945-3.816c2.074-1.656,3.691-3.656,4.922-6.043c1.227-2.381,1.84-5.111,1.84-8.154
	c0-3.067-0.625-5.785-1.84-8.172c-1.23-2.368-2.848-4.393-4.922-6.049c-2.035-1.633-4.332-2.908-6.945-3.799
	C603.574,312.181,600.938,311.745,598.211,311.745"/>
<path style="fill:#8C6F4B;" d="M651.332,339.63c0,0.319-0.023,0.675-0.023,1.08c-0.086,0.398-0.113,0.761-0.113,1.202
	c0,1.276,0.813,2.441,2.445,3.51c1.629,1.055,3.543,1.944,5.816,2.675c2.219,0.724,4.488,1.276,6.723,1.706
	c2.246,0.423,4.023,0.65,5.301,0.65c1.164,0,2.648-0.086,4.395-0.24c1.742-0.196,3.484-0.546,5.164-1.11
	c1.691-0.564,3.164-1.313,4.332-2.319c1.164-0.938,1.766-2.245,1.766-3.847c0-1.864-1.043-3.221-3.129-4.067
	c-2.055-0.865-4.648-1.521-7.84-1.994c-3.117-0.473-6.527-0.926-10.184-1.404c-3.645-0.467-7.059-1.228-10.199-2.276
	c-3.141-1.074-5.742-2.589-7.828-4.571c-2.074-2-3.117-4.847-3.117-8.497c0-5.417,2.234-9.749,6.715-12.976
	c4.539-3.234,10.859-4.859,19.016-4.859c3.977,0,7.402,0.313,10.273,0.957c2.82,0.625,5.238,1.325,7.176,2.086
	c1.941,0.773,3.547,1.46,4.773,2.11c1.242,0.638,2.16,0.951,2.738,0.951c0.699,0,1.176-0.093,1.531-0.313
	c0.32-0.196,0.762-0.447,1.266-0.711l1.398,1.41l-6.367,11.977l-2.281-0.773c-0.102-0.515-0.16-1.018-0.254-1.546
	c-0.086-0.479-0.484-0.993-1.16-1.509c-1.668-1.448-4.316-2.663-7.891-3.693c-3.543-1.019-7.543-1.521-11.973-1.521
	c-1.684,0-3.328,0.11-4.848,0.324c-1.512,0.203-2.902,0.553-4.086,1.08c-1.168,0.516-2.074,1.172-2.785,1.957
	c-0.688,0.841-1.02,1.805-1.02,3.013c0,1.859,1.043,3.209,3.105,4.031c2.102,0.772,4.719,1.411,7.852,1.901
	c3.168,0.454,6.539,0.921,10.211,1.393c3.645,0.467,7.031,1.252,10.184,2.375c3.129,1.08,5.73,2.688,7.859,4.81
	c2.055,2.123,3.098,5.05,3.098,8.786c0,3.742-0.922,6.798-2.723,9.178c-1.844,2.394-4.125,4.246-6.824,5.596
	c-2.723,1.393-5.719,2.264-8.98,2.699c-3.277,0.405-6.355,0.62-9.242,0.62c-2.895,0-5.766-0.271-8.59-0.828
	c-2.855-0.534-5.457-1.166-7.766-1.884c-2.344-0.748-4.32-1.417-5.949-2.043c-1.59-0.638-2.578-0.957-2.91-0.957
	c-0.613,0-1.117,0.258-1.535,0.742l-1.801-1.245l5.863-14.276L651.332,339.63z"/>
<path style="fill:#8C6F4B;" d="M731.852,356.797c0.418,0,0.863-0.142,1.301-0.454c0.406-0.271,0.602-0.779,0.602-1.46v-42.426
	h-16.566c-0.664,0.03-1.301,0.196-1.926,0.516c-0.602,0.35-0.883,0.901-0.883,1.65h-2.289v-14.651h2.289
	c0,1.202,0.281,2.019,0.883,2.43c0.625,0.429,1.227,0.638,1.902,0.638h45.363c0.664,0,1.336-0.209,1.914-0.65
	c0.613-0.417,0.895-1.239,0.895-2.417h2.285v14.651h-2.258c0-0.749-0.309-1.313-0.922-1.65c-0.578-0.319-1.227-0.516-1.914-0.516
	h-16.551l0.027,42.426c0,1.275,0.742,1.901,2.277,1.901v2.319h-16.418L731.852,356.797z"/>
<path style="fill:#8C6F4B;" d="M831.328,314.868c0-1.626-1.32-2.43-3.945-2.43l-31.098,0.019v12.706h19.668
	c1.41,0,2.48-0.067,3.168-0.325c0.648-0.19,1.016-0.768,1.016-1.712h2.27l0.027,13.534h-2.555c0.258-0.944-0.086-1.533-1.016-1.705
	c-0.934-0.233-2.273-0.344-3.945-0.344l-18.586,0.012v15.02h32.59c1.008,0,1.867-0.239,2.555-0.724
	c0.688-0.442,1.02-1.056,1.02-1.847h2.27v13.375h-2.254c0-0.755-0.348-1.185-1.035-1.258c-0.688-0.092-1.547-0.117-2.555-0.117
	h-46.773v-2.307c0.453,0,0.871-0.141,1.301-0.447c0.43-0.271,0.625-0.773,0.625-1.448v-47.628c0-0.682-0.219-1.185-0.637-1.497
	c-0.441-0.276-0.836-0.436-1.289-0.436v-2.271l45.215-0.024c2.645,0,3.965-0.785,3.965-2.313h2.297v14.167H831.328z"/>
<path style="fill:#8C6F4B;" d="M870.68,302.984v2.301c-1.938,0-2.922,0.656-2.922,1.908v42.431h34.422
	c1.004,0,1.852-0.245,2.527-0.705c0.711-0.491,1.043-1.129,1.043-1.976h2.27v13.362h-2.27c0-0.687-0.332-1.056-1.02-1.142
	c-0.699-0.092-1.547-0.146-2.551-0.146l-49.965,0.024v-2.271c2.242,0,3.359-0.675,3.359-1.92l-0.059-47.658
	c0-1.252-1.094-1.896-3.301-1.896v-2.313H870.68z"/>
<polygon style="fill:#8C6F4B;" points="151.641,6.933 157.258,14.063 160.02,22.922 165.48,30.223 169.344,38.29 169.516,47.91 
	169.074,57.947 169.258,67.918 171.395,77.924 171.273,87.998 171.332,98.023 169.16,108.072 169.641,118.165 171.309,128.258 
	170.168,138.313 171.051,148.314 170.215,158.333 169.418,167.94 166.156,176.984 161.16,185.377 153.172,191.156 143.871,194.248 
	134.324,195.795 124.656,195.513 114.988,196.23 105.414,194.377 96.102,191.304 88.25,185.279 82.996,177.033 80.348,167.806 
	78.84,158.333 79.266,148.363 78.949,138.313 78.176,128.27 78.152,118.27 80.211,108.227 78.813,98.207 78.996,88.139 
	78.641,78.084 79.402,68.034 78.918,57.973 80.102,47.91 79.402,38.021 83.66,30.167 88.09,22.253 94.012,15.277 98.113,6.596 
	87.133,6.252 76.531,6.534 65.906,7.111 55.34,6.632 44.715,7.613 34.113,6.301 23.484,7.822 12.859,6.982 2.098,6.816 
	6.699,14.719 11.59,22.345 16.297,30.081 21.426,37.677 19.816,47.628 20.902,57.383 21.301,67.077 21.941,76.819 20.738,86.568 
	19.656,96.342 20.098,106.115 20.469,115.896 20.184,125.718 20.707,135.461 21.828,145.216 20.063,154.934 21.203,165.548 
	22.688,176.027 26.223,185.96 31.266,195.139 36.813,204.071 43.816,211.974 52.566,217.955 59.992,223.82 68.359,228.453 
	77.563,230.926 86.727,233.784 96.215,235.165 105.586,237.3 115.207,236.435 124.656,238.006 134.227,238.178 143.652,235.969 
	153.32,236.527 162.645,234.134 172.094,232.33 180.988,228.643 189.52,224.164 197.273,218.68 205.41,211.875 213.41,204.789 
	219.027,195.703 224.441,186.476 226.918,176.027 227.887,165.499 228.672,154.934 227.789,145.216 228.906,135.485 227.445,125.73 
	227.68,116.012 228.586,106.244 227.398,96.477 229.477,86.71 228.625,76.942 228.734,67.163 228.465,57.408 228.242,47.604 
	229.508,38.309 232.98,30.081 237.176,22.068 241.863,14.295 246.98,7.037 236.551,7.203 225.926,7.086 215.383,7.006 
	204.746,5.798 194.145,6.387 183.543,7.497 172.891,5.908 162.266,6.239 "/>
<polygon style="fill:#8C6F4B;" points="503.508,33.296 508.234,22.866 514.27,13.063 521.02,4.049 510.82,4.368 500.234,3.748 
	489.68,4.448 479.09,4.074 468.512,4.11 457.949,3.613 447.348,3.013 436.734,2.81 426.266,3.97 433.102,13.063 438.93,23.014 
	443.566,33.425 443.508,43.333 444.059,53.543 444.316,63.727 444.734,73.918 443.848,84.139 445.609,94.28 444.168,104.49 
	444.512,114.687 445.336,124.847 445.125,135.068 443.875,145.265 443.652,155.498 444.844,165.707 443.875,175.929 443.836,186.15 
	445.336,196.408 443.813,206.458 438.438,216.458 432.719,226.471 425.113,236.361 436.648,235.986 447.211,235.809 
	457.777,236.251 468.355,235.963 478.957,236.655 489.52,236.619 500.148,235.404 510.734,234.926 520.895,235.717 514.613,226.551 
	509.656,216.084 501.977,207.004 502.262,196.476 502.578,186.272 503.375,176.082 503.461,165.897 501.863,155.688 503.461,145.51 
	503.879,135.313 501.863,125.129 502.023,114.944 502.809,104.735 503.914,94.514 503.559,84.305 503.164,74.083 502.367,63.862 
	502.332,53.665 502.859,43.389 "/>
<polygon style="fill:#8C6F4B;" points="887.109,127.055 886.301,117.423 887.184,107.791 885.828,98.17 887.207,88.495 
	885.922,78.801 885.699,69.145 887.223,59.426 886.461,49.732 886.68,40.021 886.348,30.24 892.84,20.67 898.422,10.559 
	905.957,0.779 894.621,1.645 884.023,2.264 873.434,0.202 862.875,1.724 852.285,0.295 841.711,0 831.133,0.804 820.492,0.54 
	810.09,1.245 815.707,11.074 821.633,20.977 827.563,30.719 828.406,40.94 827.402,51.48 829.363,62.009 828.23,72.543 
	828.406,83.127 827.758,93.691 827.82,104.293 829.34,114.846 828.406,125.35 828.102,135.89 829.133,146.093 827.07,156.161 
	824.406,166.002 817.781,173.708 809.059,179.291 799.828,184.211 789.426,185.708 778.813,185.254 768.895,181.364 
	760.516,174.984 753.648,166.873 749.203,157.229 747.828,146.584 748.602,135.719 740.711,141.743 732.539,147.197 725.434,154.18 
	717.789,160.395 709.738,166.174 701.051,171.493 704.465,181.254 709.766,189.426 714.723,197.807 721.199,205.108 
	728.207,211.979 736.844,216.691 745.445,221.244 754.527,225.201 763.621,229.44 773.695,230.164 783.352,232.44 793.313,232.22 
	803.203,231.717 813.203,231.662 822.566,228.011 831.941,224.975 840.777,220.568 850.336,217.158 857.957,210.538 
	864.816,203.047 870.789,194.832 875.012,185.672 880.496,177.033 882.766,167.131 883.957,157.081 886.18,147.197 886.078,137.104 
	"/>
<polygon style="fill:#8C6F4B;" points="350.473,210.065 349.27,219.373 344.875,227.686 338.227,234.306 329.82,238.373 
	320.629,240.012 311.277,238.84 302.859,234.447 296.223,227.797 292.113,219.33 290.602,210.065 292.309,200.862 296.602,192.61 
	302.898,185.672 311.438,181.831 320.629,179.953 329.77,181.831 338.184,185.893 344.949,192.359 349.195,200.771 "/>
<polygon style="fill:#8C6F4B;" points="640.227,210.065 639.172,219.397 634.68,227.625 628.203,234.41 619.723,238.453 
	610.508,240.178 601.172,238.729 592.887,234.306 586.41,227.575 582.027,219.305 580.379,210.065 582.223,200.862 586.137,192.359 
	592.824,185.732 601.207,181.42 610.508,179.953 619.832,181.389 628.078,185.861 634.965,192.31 639.051,200.808 "/>
</svg>
