<?xml version="1.0" encoding="utf-8"?>
<!-- Generator: Adobe Illustrator 25.4.1, SVG Export Plug-In . SVG Version: 6.00 Build 0)  -->
<svg version="1.1" id="圖層_1" xmlns="http://www.w3.org/2000/svg" xmlns:xlink="http://www.w3.org/1999/xlink" x="0px" y="0px"
	 viewBox="0 0 64 64" style="enable-background:new 0 0 64 64;" xml:space="preserve">
<style type="text/css">
	.st0{fill:#FF700C;}
	.st1{fill:#FFFFFF;}
</style>
<g>
	<polygon class="st0" points="55.6,52.2 32,64 8.4,52.2 8.4,0 55.6,0 	"/>
	<g>
		<path class="st1" d="M20.9,8.6l6.4,9.3h0.1V8.6h2.1v12.9h-2.1L21,12.1h-0.1v9.4h-2.1V8.6H20.9z"/>
		<path class="st1" d="M42.4,10.3c1.1,1.2,1.6,2.8,1.6,4.8c0,2-0.5,3.6-1.6,4.8c-1.1,1.3-2.7,1.9-4.6,1.9c-2,0-3.5-0.6-4.6-1.9
			c-1.1-1.2-1.6-2.8-1.6-4.8c0-2,0.5-3.5,1.6-4.8c1.1-1.3,2.7-1.9,4.6-1.9C39.7,8.4,41.2,9,42.4,10.3z M34.6,11.6
			c-0.7,0.9-1,2-1,3.5c0,1.5,0.3,2.6,1,3.5c0.7,0.9,1.8,1.3,3.1,1.3c1.3,0,2.4-0.4,3.1-1.3c0.7-0.8,1.1-2,1.1-3.5
			c0-1.5-0.4-2.7-1.1-3.6c-0.7-0.9-1.7-1.3-3.1-1.3C36.4,10.2,35.4,10.7,34.6,11.6z"/>
		<path class="st1" d="M48.2,19.2c0.3,0.3,0.4,0.6,0.4,1s-0.1,0.7-0.4,1c-0.3,0.3-0.6,0.4-1,0.4s-0.7-0.1-1-0.4
			c-0.3-0.3-0.4-0.6-0.4-1s0.1-0.7,0.4-1c0.3-0.3,0.6-0.4,1-0.4S47.9,18.9,48.2,19.2z"/>
	</g>
</g>
</svg>
